<svg xmlns="http://www.w3.org/2000/svg" width="528" height="396" viewBox="0 0 528 396" version="1.1"><path d="M 99.144 165.185 C 93.479 166.157, 89.717 168.344, 85.761 172.966 C 77.717 182.364, 78.196 194.251, 86.972 203.028 C 93.130 209.185, 96.522 210, 116 210 C 134.290 210, 138.234 209.203, 143.885 204.367 C 156.096 193.914, 154.068 174.946, 139.967 167.735 C 134.743 165.064, 133.803 164.930, 118.818 164.720 C 110.193 164.599, 101.340 164.808, 99.144 165.185 M 174.500 164.969 L 156.500 165.500 156.500 187.500 L 156.500 209.500 160.750 209.807 L 165 210.115 165.094 198.807 C 165.146 192.588, 165.258 184.350, 165.344 180.500 L 165.500 173.500 181.109 173.225 C 195.085 172.979, 196.958 173.145, 199.016 174.812 C 200.629 176.118, 201.286 177.660, 201.219 179.988 C 201.053 185.831, 199.536 186.443, 183.840 187 L 169.744 187.500 179.622 195.998 C 185.055 200.672, 190.850 205.732, 192.500 207.243 C 195.101 209.625, 196.331 209.991, 201.750 209.995 C 205.188 209.998, 208 209.864, 208 209.698 C 208 209.532, 204.422 206.495, 200.048 202.948 C 195.674 199.402, 192.074 196.162, 192.048 195.750 C 192.022 195.338, 193.463 194.999, 195.250 194.998 C 197.037 194.998, 200.066 194.210, 201.980 193.248 C 212.428 187.999, 212.728 172.691, 202.497 166.917 C 198.364 164.585, 195.148 164.361, 174.500 164.969 M 239.758 165.250 C 238.864 165.938, 233.247 174.150, 227.276 183.500 C 221.304 192.850, 215.199 202.292, 213.709 204.482 C 212.219 206.672, 211 208.810, 211 209.232 C 211 209.654, 213.197 210, 215.883 210 L 220.765 210 224.739 203.750 C 226.924 200.313, 231.787 192.637, 235.545 186.692 C 239.303 180.748, 242.688 175.693, 243.068 175.458 C 243.712 175.060, 255 192.017, 255 193.381 C 255 193.721, 250.050 194, 244 194 C 237.950 194, 233 194.310, 233 194.688 C 233 195.067, 234.012 196.864, 235.250 198.681 L 237.500 201.986 249.500 201.996 L 261.500 202.005 263.500 205.753 C 265.377 209.269, 265.824 209.519, 270.750 209.802 C 273.637 209.969, 276 209.836, 276 209.507 C 276 209.179, 273.824 205.668, 271.164 201.705 C 268.504 197.742, 262.838 188.972, 258.571 182.216 C 254.305 175.460, 249.691 168.598, 248.318 166.966 C 245.673 163.823, 242.452 163.177, 239.758 165.250 M 290.733 165.146 C 272.860 167.746, 265.571 190.298, 278.442 203.169 C 283.966 208.693, 287.108 209.476, 305 209.786 L 321.500 210.072 323.750 206.550 C 324.988 204.613, 326 202.797, 326 202.514 C 326 202.231, 318.561 202, 309.468 202 C 291.756 202, 288.326 201.300, 284.373 196.879 C 278.019 189.772, 280.006 178.598, 288.326 174.649 C 291.060 173.352, 294.902 173, 306.320 173 L 320.837 173 322.918 169.632 C 324.063 167.780, 325 166.002, 325 165.682 C 325 164.837, 295.979 164.383, 290.733 165.146 M 331.222 165.178 C 330.343 166.057, 330 171.889, 330 185.977 C 330 202.078, 330.276 205.950, 331.557 207.777 C 333.081 209.953, 333.553 210, 353.924 210 L 374.734 210 377.381 206 L 380.028 202 359.514 202 L 339 202 339 183.500 C 339 165.930, 338.904 165, 337.082 165 C 336.027 165, 334.552 164.765, 333.804 164.478 C 333.056 164.191, 331.894 164.506, 331.222 165.178 M 404.500 164.992 C 392.982 165.480, 392.313 165.630, 387.850 168.729 C 375.644 177.206, 374.794 194.676, 386.115 204.367 C 391.685 209.134, 395.783 210, 412.784 210 L 427.837 210 429.918 206.632 C 431.063 204.780, 432 202.980, 432 202.632 C 432 202.284, 424.561 202, 415.468 202 C 397.352 202, 393.916 201.251, 390.168 196.486 C 385.949 191.123, 386.312 191, 406.418 191 L 424.837 191 426.918 187.632 C 428.063 185.780, 429 183.980, 429 183.632 C 429 183.284, 419.775 183, 408.500 183 C 386.180 183, 385.775 182.879, 390.598 177.678 C 394.473 173.499, 396.801 173, 412.432 173 L 426.734 173 429.381 169 L 432.028 165 427.264 164.890 C 424.644 164.830, 421.150 164.714, 419.500 164.633 C 417.850 164.551, 411.100 164.713, 404.500 164.992 M 437.575 165.918 C 433.837 170.048, 438.090 176.129, 443.009 173.689 C 446.424 171.995, 446.860 167.716, 443.835 165.597 C 440.874 163.523, 439.687 163.583, 437.575 165.918 M 437.587 167.192 C 436.268 170.144, 437.351 172.481, 440.191 172.810 C 443.619 173.207, 445.573 170.166, 443.613 167.485 C 442.438 165.879, 442.323 166.018, 442.490 168.836 C 442.640 171.357, 442.413 171.758, 441.339 170.866 C 440.333 170.031, 439.967 170.097, 439.868 171.128 C 439.796 171.882, 439.423 170.925, 439.039 169 C 438.506 166.323, 438.164 165.898, 437.587 167.192 M 97.500 173.959 C 93.193 175.753, 89.732 180.711, 89.302 185.703 C 88.764 191.959, 91.226 196.753, 96.500 199.718 C 100.178 201.786, 101.749 201.965, 116 201.936 C 133.512 201.900, 136.743 201.006, 140.714 195.102 C 145.144 188.517, 142.784 178.499, 135.938 174.827 C 133.016 173.260, 130.180 173.009, 116.016 173.063 C 106.932 173.098, 98.600 173.501, 97.500 173.959 M 188.052 238.445 C 184.615 242.104, 185.880 245.617, 191.537 248.120 C 194.659 249.500, 196 250.690, 196 252.078 C 196 254.682, 193.513 255.555, 190.284 254.084 C 187.077 252.622, 185.009 254.102, 186.965 256.458 C 188.507 258.316, 195.788 258.487, 198.076 256.718 C 200.180 255.093, 201.126 251.104, 199.935 248.879 C 199.406 247.891, 196.954 246.189, 194.487 245.097 C 192.019 244.006, 190 242.660, 190 242.106 C 190 240.395, 193.276 239.155, 195.531 240.012 C 198.597 241.177, 200.795 239.662, 199.063 237.576 C 196.976 235.061, 190.771 235.551, 188.052 238.445 M 247.441 237.096 C 247.068 237.699, 247.379 238.807, 248.132 239.560 C 249.866 241.294, 252.530 239.823, 251.677 237.601 C 250.974 235.769, 248.447 235.468, 247.441 237.096 M 295.667 236.667 C 295.300 237.033, 295 241.983, 295 247.667 L 295 258 300.066 258 C 305.062 258, 308.799 256.751, 310.235 254.600 C 311.462 252.763, 311.088 249.318, 309.521 248.017 C 308.447 247.126, 308.310 246.290, 309.021 244.961 C 311.793 239.781, 308.386 236, 300.944 236 C 298.408 236, 296.033 236.300, 295.667 236.667 M 299 242.563 C 299 244.853, 299.347 245.093, 302.250 244.813 C 304.741 244.573, 305.575 243.975, 305.820 242.250 C 306.100 240.277, 305.699 240, 302.570 240 C 299.405 240, 299 240.291, 299 242.563 M 205.455 245.455 C 200.573 250.336, 203.931 258, 210.950 258 C 214.597 258, 217.716 256.049, 216.313 254.646 C 215.944 254.278, 214.232 254.241, 212.507 254.565 C 210.314 254.976, 208.978 254.679, 208.063 253.576 C 206.899 252.173, 207.372 252, 212.378 252 C 216.814 252, 218 251.670, 218 250.434 C 218 248.509, 216.088 244.759, 214.600 243.765 C 212.298 242.228, 207.862 243.047, 205.455 245.455 M 221.667 243.667 C 221.300 244.033, 221 247.408, 221 251.167 C 221 257.333, 221.195 258, 223 258 C 224.684 258, 225.002 257.328, 225.015 253.750 C 225.033 248.959, 225.595 247.776, 228.608 246.190 C 230.561 245.163, 230.896 245.539, 233.146 251.291 C 234.913 255.809, 236.138 257.582, 237.643 257.801 C 239.370 258.052, 240.225 256.841, 242.814 250.487 C 245.879 242.961, 245.889 242.876, 243.707 243.186 C 242.097 243.415, 241.136 244.650, 240.155 247.750 C 239.415 250.088, 238.446 252, 238 252 C 237.554 252, 236.585 250.088, 235.845 247.750 C 234.657 243.997, 234.112 243.463, 231.185 243.182 C 229.361 243.007, 227.264 243.366, 226.524 243.980 C 225.596 244.750, 224.977 244.771, 224.530 244.049 C 223.789 242.850, 222.637 242.696, 221.667 243.667 M 248 250.573 C 248 257.248, 248.208 258.107, 249.750 257.810 C 252.782 257.226, 252.523 243, 249.481 243 C 248.303 243, 248 244.551, 248 250.573 M 257.736 244.250 C 256.831 244.938, 255.610 246.792, 255.024 248.371 C 254.163 250.690, 254.308 251.845, 255.778 254.371 C 257.695 257.666, 260.998 258.719, 265.709 257.537 C 267.755 257.023, 267.967 256.665, 266.947 255.436 C 266.229 254.571, 264.924 254.207, 263.811 254.560 C 261.343 255.343, 259 253.366, 259 250.500 C 259 247.687, 261.327 245.655, 263.702 246.395 C 264.691 246.702, 266.123 246.563, 266.885 246.085 C 267.995 245.388, 267.859 244.995, 266.201 244.107 C 263.461 242.641, 259.773 242.703, 257.736 244.250 M 272.018 244.784 C 269.160 247.099, 268.860 253.083, 271.458 255.954 C 274.460 259.271, 283 258.353, 283 254.712 C 283 254.224, 281.277 254.115, 279.171 254.471 C 276.330 254.951, 275.009 254.716, 274.049 253.559 C 272.903 252.178, 273.399 252, 278.378 252 C 283.586 252, 284 251.830, 284 249.689 C 284 244.073, 276.624 241.054, 272.018 244.784 M 314.667 243.667 C 313.581 244.752, 313.907 252.702, 315.149 255.428 C 316.196 257.725, 316.824 257.942, 322.191 257.867 L 328.083 257.784 327.792 250.642 C 327.565 245.090, 327.166 243.500, 326 243.500 C 324.909 243.500, 324.364 245, 324 249 C 323.539 254.067, 323.303 254.500, 321 254.500 C 318.658 254.500, 318.481 254.137, 318.200 248.750 C 317.918 243.345, 316.717 241.617, 314.667 243.667 M 332.655 244.235 C 329.719 246.427, 330.844 250.307, 334.750 251.457 C 339.235 252.777, 339.175 255.443, 334.678 254.599 C 330.894 253.889, 329.503 254.696, 331.131 256.658 C 332.514 258.325, 339.178 258.422, 340.800 256.800 C 341.460 256.140, 342 254.529, 342 253.220 C 342 251.374, 341.108 250.489, 338.028 249.279 C 333.610 247.544, 333.649 245.480, 338.083 246.367 C 340.627 246.875, 342.949 245.616, 341.724 244.391 C 340.421 243.088, 334.331 242.983, 332.655 244.235 M 207.659 247.446 C 207.189 248.672, 207.813 249, 210.615 249 C 213.009 249, 214.033 248.592, 213.756 247.750 C 213.132 245.849, 208.363 245.611, 207.659 247.446 M 274.040 247.452 C 272.919 248.802, 273.229 249, 276.461 249 C 278.978 249, 280.035 248.599, 279.755 247.750 C 279.138 245.877, 275.504 245.687, 274.040 247.452 M 299 251.500 C 299 253.917, 299.292 254.097, 302.750 253.810 C 305.730 253.564, 306.500 253.089, 306.500 251.500 C 306.500 249.911, 305.730 249.436, 302.750 249.190 C 299.292 248.903, 299 249.083, 299 251.500" stroke="none" fill="#fbeded" fill-rule="evenodd"/><path d="M 0 198.002 L 0 396.004 264.250 395.752 L 528.500 395.500 528.752 197.750 L 529.005 0 264.502 0 L 0 0 0 198.002 M 0.490 198.500 C 0.490 307.400, 0.607 351.802, 0.750 297.170 C 0.893 242.539, 0.893 153.439, 0.750 99.170 C 0.607 44.902, 0.490 89.600, 0.490 198.500 M 99.144 165.185 C 93.479 166.157, 89.717 168.344, 85.761 172.966 C 77.717 182.364, 78.196 194.251, 86.972 203.028 C 93.130 209.185, 96.522 210, 116 210 C 134.290 210, 138.234 209.203, 143.885 204.367 C 156.096 193.914, 154.068 174.946, 139.967 167.735 C 134.743 165.064, 133.803 164.930, 118.818 164.720 C 110.193 164.599, 101.340 164.808, 99.144 165.185 M 174.500 164.969 L 156.500 165.500 156.500 187.500 L 156.500 209.500 160.750 209.807 L 165 210.115 165.094 198.807 C 165.146 192.588, 165.258 184.350, 165.344 180.500 L 165.500 173.500 181.109 173.225 C 195.085 172.979, 196.958 173.145, 199.016 174.812 C 200.629 176.118, 201.286 177.660, 201.219 179.988 C 201.053 185.831, 199.536 186.443, 183.840 187 L 169.744 187.500 179.622 195.998 C 185.055 200.672, 190.850 205.732, 192.500 207.243 C 195.101 209.625, 196.331 209.991, 201.750 209.995 C 205.188 209.998, 208 209.864, 208 209.698 C 208 209.532, 204.422 206.495, 200.048 202.948 C 195.674 199.402, 192.074 196.162, 192.048 195.750 C 192.022 195.338, 193.463 194.999, 195.250 194.998 C 197.037 194.998, 200.066 194.210, 201.980 193.248 C 212.428 187.999, 212.728 172.691, 202.497 166.917 C 198.364 164.585, 195.148 164.361, 174.500 164.969 M 239.758 165.250 C 238.864 165.938, 233.247 174.150, 227.276 183.500 C 221.304 192.850, 215.199 202.292, 213.709 204.482 C 212.219 206.672, 211 208.810, 211 209.232 C 211 209.654, 213.197 210, 215.883 210 L 220.765 210 224.739 203.750 C 226.924 200.313, 231.787 192.637, 235.545 186.692 C 239.303 180.748, 242.688 175.693, 243.068 175.458 C 243.712 175.060, 255 192.017, 255 193.381 C 255 193.721, 250.050 194, 244 194 C 237.950 194, 233 194.310, 233 194.688 C 233 195.067, 234.012 196.864, 235.250 198.681 L 237.500 201.986 249.500 201.996 L 261.500 202.005 263.500 205.753 C 265.377 209.269, 265.824 209.519, 270.750 209.802 C 273.637 209.969, 276 209.836, 276 209.507 C 276 209.179, 273.824 205.668, 271.164 201.705 C 268.504 197.742, 262.838 188.972, 258.571 182.216 C 254.305 175.460, 249.691 168.598, 248.318 166.966 C 245.673 163.823, 242.452 163.177, 239.758 165.250 M 290.733 165.146 C 272.860 167.746, 265.571 190.298, 278.442 203.169 C 283.966 208.693, 287.108 209.476, 305 209.786 L 321.500 210.072 323.750 206.550 C 324.988 204.613, 326 202.797, 326 202.514 C 326 202.231, 318.561 202, 309.468 202 C 291.756 202, 288.326 201.300, 284.373 196.879 C 278.019 189.772, 280.006 178.598, 288.326 174.649 C 291.060 173.352, 294.902 173, 306.320 173 L 320.837 173 322.918 169.632 C 324.063 167.780, 325 166.002, 325 165.682 C 325 164.837, 295.979 164.383, 290.733 165.146 M 331.222 165.178 C 330.343 166.057, 330 171.889, 330 185.977 C 330 202.078, 330.276 205.950, 331.557 207.777 C 333.081 209.953, 333.553 210, 353.924 210 L 374.734 210 377.381 206 L 380.028 202 359.514 202 L 339 202 339 183.500 C 339 165.930, 338.904 165, 337.082 165 C 336.027 165, 334.552 164.765, 333.804 164.478 C 333.056 164.191, 331.894 164.506, 331.222 165.178 M 404.500 164.992 C 392.982 165.480, 392.313 165.630, 387.850 168.729 C 375.644 177.206, 374.794 194.676, 386.115 204.367 C 391.685 209.134, 395.783 210, 412.784 210 L 427.837 210 429.918 206.632 C 431.063 204.780, 432 202.980, 432 202.632 C 432 202.284, 424.561 202, 415.468 202 C 397.352 202, 393.916 201.251, 390.168 196.486 C 385.949 191.123, 386.312 191, 406.418 191 L 424.837 191 426.918 187.632 C 428.063 185.780, 429 183.980, 429 183.632 C 429 183.284, 419.775 183, 408.500 183 C 386.180 183, 385.775 182.879, 390.598 177.678 C 394.473 173.499, 396.801 173, 412.432 173 L 426.734 173 429.381 169 L 432.028 165 427.264 164.890 C 424.644 164.830, 421.150 164.714, 419.500 164.633 C 417.850 164.551, 411.100 164.713, 404.500 164.992 M 437.575 165.918 C 433.837 170.048, 438.090 176.129, 443.009 173.689 C 446.424 171.995, 446.860 167.716, 443.835 165.597 C 440.874 163.523, 439.687 163.583, 437.575 165.918 M 437.587 167.192 C 436.268 170.144, 437.351 172.481, 440.191 172.810 C 443.619 173.207, 445.573 170.166, 443.613 167.485 C 442.438 165.879, 442.323 166.018, 442.490 168.836 C 442.640 171.357, 442.413 171.758, 441.339 170.866 C 440.333 170.031, 439.967 170.097, 439.868 171.128 C 439.796 171.882, 439.423 170.925, 439.039 169 C 438.506 166.323, 438.164 165.898, 437.587 167.192 M 97.500 173.959 C 93.193 175.753, 89.732 180.711, 89.302 185.703 C 88.764 191.959, 91.226 196.753, 96.500 199.718 C 100.178 201.786, 101.749 201.965, 116 201.936 C 133.512 201.900, 136.743 201.006, 140.714 195.102 C 145.144 188.517, 142.784 178.499, 135.938 174.827 C 133.016 173.260, 130.180 173.009, 116.016 173.063 C 106.932 173.098, 98.600 173.501, 97.500 173.959 M 188.052 238.445 C 184.615 242.104, 185.880 245.617, 191.537 248.120 C 194.659 249.500, 196 250.690, 196 252.078 C 196 254.682, 193.513 255.555, 190.284 254.084 C 187.077 252.622, 185.009 254.102, 186.965 256.458 C 188.507 258.316, 195.788 258.487, 198.076 256.718 C 200.180 255.093, 201.126 251.104, 199.935 248.879 C 199.406 247.891, 196.954 246.189, 194.487 245.097 C 192.019 244.006, 190 242.660, 190 242.106 C 190 240.395, 193.276 239.155, 195.531 240.012 C 198.597 241.177, 200.795 239.662, 199.063 237.576 C 196.976 235.061, 190.771 235.551, 188.052 238.445 M 247.441 237.096 C 247.068 237.699, 247.379 238.807, 248.132 239.560 C 249.866 241.294, 252.530 239.823, 251.677 237.601 C 250.974 235.769, 248.447 235.468, 247.441 237.096 M 295.667 236.667 C 295.300 237.033, 295 241.983, 295 247.667 L 295 258 300.066 258 C 305.062 258, 308.799 256.751, 310.235 254.600 C 311.462 252.763, 311.088 249.318, 309.521 248.017 C 308.447 247.126, 308.310 246.290, 309.021 244.961 C 311.793 239.781, 308.386 236, 300.944 236 C 298.408 236, 296.033 236.300, 295.667 236.667 M 299 242.563 C 299 244.853, 299.347 245.093, 302.250 244.813 C 304.741 244.573, 305.575 243.975, 305.820 242.250 C 306.100 240.277, 305.699 240, 302.570 240 C 299.405 240, 299 240.291, 299 242.563 M 205.455 245.455 C 200.573 250.336, 203.931 258, 210.950 258 C 214.597 258, 217.716 256.049, 216.313 254.646 C 215.944 254.278, 214.232 254.241, 212.507 254.565 C 210.314 254.976, 208.978 254.679, 208.063 253.576 C 206.899 252.173, 207.372 252, 212.378 252 C 216.814 252, 218 251.670, 218 250.434 C 218 248.509, 216.088 244.759, 214.600 243.765 C 212.298 242.228, 207.862 243.047, 205.455 245.455 M 221.667 243.667 C 221.300 244.033, 221 247.408, 221 251.167 C 221 257.333, 221.195 258, 223 258 C 224.684 258, 225.002 257.328, 225.015 253.750 C 225.033 248.959, 225.595 247.776, 228.608 246.190 C 230.561 245.163, 230.896 245.539, 233.146 251.291 C 234.913 255.809, 236.138 257.582, 237.643 257.801 C 239.370 258.052, 240.225 256.841, 242.814 250.487 C 245.879 242.961, 245.889 242.876, 243.707 243.186 C 242.097 243.415, 241.136 244.650, 240.155 247.750 C 239.415 250.088, 238.446 252, 238 252 C 237.554 252, 236.585 250.088, 235.845 247.750 C 234.657 243.997, 234.112 243.463, 231.185 243.182 C 229.361 243.007, 227.264 243.366, 226.524 243.980 C 225.596 244.750, 224.977 244.771, 224.530 244.049 C 223.789 242.850, 222.637 242.696, 221.667 243.667 M 248 250.573 C 248 257.248, 248.208 258.107, 249.750 257.810 C 252.782 257.226, 252.523 243, 249.481 243 C 248.303 243, 248 244.551, 248 250.573 M 257.736 244.250 C 256.831 244.938, 255.610 246.792, 255.024 248.371 C 254.163 250.690, 254.308 251.845, 255.778 254.371 C 257.695 257.666, 260.998 258.719, 265.709 257.537 C 267.755 257.023, 267.967 256.665, 266.947 255.436 C 266.229 254.571, 264.924 254.207, 263.811 254.560 C 261.343 255.343, 259 253.366, 259 250.500 C 259 247.687, 261.327 245.655, 263.702 246.395 C 264.691 246.702, 266.123 246.563, 266.885 246.085 C 267.995 245.388, 267.859 244.995, 266.201 244.107 C 263.461 242.641, 259.773 242.703, 257.736 244.250 M 272.018 244.784 C 269.160 247.099, 268.860 253.083, 271.458 255.954 C 274.460 259.271, 283 258.353, 283 254.712 C 283 254.224, 281.277 254.115, 279.171 254.471 C 276.330 254.951, 275.009 254.716, 274.049 253.559 C 272.903 252.178, 273.399 252, 278.378 252 C 283.586 252, 284 251.830, 284 249.689 C 284 244.073, 276.624 241.054, 272.018 244.784 M 314.667 243.667 C 313.581 244.752, 313.907 252.702, 315.149 255.428 C 316.196 257.725, 316.824 257.942, 322.191 257.867 L 328.083 257.784 327.792 250.642 C 327.565 245.090, 327.166 243.500, 326 243.500 C 324.909 243.500, 324.364 245, 324 249 C 323.539 254.067, 323.303 254.500, 321 254.500 C 318.658 254.500, 318.481 254.137, 318.200 248.750 C 317.918 243.345, 316.717 241.617, 314.667 243.667 M 332.655 244.235 C 329.719 246.427, 330.844 250.307, 334.750 251.457 C 339.235 252.777, 339.175 255.443, 334.678 254.599 C 330.894 253.889, 329.503 254.696, 331.131 256.658 C 332.514 258.325, 339.178 258.422, 340.800 256.800 C 341.460 256.140, 342 254.529, 342 253.220 C 342 251.374, 341.108 250.489, 338.028 249.279 C 333.610 247.544, 333.649 245.480, 338.083 246.367 C 340.627 246.875, 342.949 245.616, 341.724 244.391 C 340.421 243.088, 334.331 242.983, 332.655 244.235 M 207.659 247.446 C 207.189 248.672, 207.813 249, 210.615 249 C 213.009 249, 214.033 248.592, 213.756 247.750 C 213.132 245.849, 208.363 245.611, 207.659 247.446 M 274.040 247.452 C 272.919 248.802, 273.229 249, 276.461 249 C 278.978 249, 280.035 248.599, 279.755 247.750 C 279.138 245.877, 275.504 245.687, 274.040 247.452 M 299 251.500 C 299 253.917, 299.292 254.097, 302.750 253.810 C 305.730 253.564, 306.500 253.089, 306.500 251.500 C 306.500 249.911, 305.730 249.436, 302.750 249.190 C 299.292 248.903, 299 249.083, 299 251.500" stroke="none" fill="#fa0404" fill-rule="evenodd"/></svg>