<?xml version="1.0" standalone="no"?>
<!DOCTYPE svg PUBLIC "-//W3C//DTD SVG 20010904//EN"
 "http://www.w3.org/TR/2001/REC-SVG-20010904/DTD/svg10.dtd">
<svg version="1.0" xmlns="http://www.w3.org/2000/svg"
 width="600.000000pt" height="600.000000pt" viewBox="0 0 600.000000 600.000000"
 preserveAspectRatio="xMidYMid meet">

<g transform="translate(0.000000,600.000000) scale(0.100000,-0.100000)"
fill="#000000" stroke="none">
<path d="M2735 5989 c-1171 -102 -2187 -897 -2570 -2010 -374 -1089 -98 -2286
715 -3099 813 -813 2010 -1089 3099 -715 868 298 1558 988 1856 1856 374 1089
98 2286 -715 3099 -628 629 -1498 945 -2385 869z m648 -413 c304 -49 555 -131
813 -265 693 -360 1186 -1005 1349 -1766 43 -203 50 -279 50 -545 0 -266 -7
-342 -50 -545 -163 -761 -656 -1406 -1349 -1766 -266 -138 -534 -223 -851
-271 -121 -18 -569 -18 -690 0 -587 88 -1091 338 -1495 742 -404 404 -654 908
-742 1495 -18 121 -18 569 0 690 88 587 338 1091 742 1495 404 404 948 673
1495 739 50 6 104 13 120 15 73 10 515 -3 608 -18z"/>
<path d="M2090 4445 l0 -395 80 0 80 0 0 119 0 119 213 4 c188 3 217 6 257 24
65 30 107 69 138 128 22 42 27 64 27 126 0 65 -4 82 -29 128 -17 30 -47 67
-67 83 -70 56 -94 59 -410 59 l-289 0 0 -395z m604 216 c57 -54 55 -135 -5
-186 -30 -25 -31 -25 -235 -25 l-204 0 0 121 0 120 209 -3 c205 -3 210 -3 235
-27z"/>
<path d="M2960 4446 c0 -244 4 -396 10 -396 5 0 33 5 62 11 121 26 217 100
273 212 19 38 35 79 35 91 1 50 17 43 28 -13 31 -147 171 -272 335 -296 l47
-7 0 396 0 396 -22 0 c-36 0 -119 -25 -167 -49 -94 -48 -185 -173 -198 -271
-6 -42 -23 -38 -23 6 0 40 -69 161 -116 204 -53 49 -149 96 -216 105 l-48 7 0
-396z"/>
<path d="M3410 3645 l335 -335 3 112 3 112 -223 223 -223 223 -115 0 -115 0
335 -335z"/>
<path d="M3635 3870 c60 -60 111 -110 112 -110 2 0 3 50 3 110 l0 110 -112 0
-113 0 110 -110z"/>
<path d="M2960 3750 l0 -115 223 -223 223 -223 112 3 112 3 -335 335 -335 335
0 -115z"/>
<path d="M2960 3297 l0 -107 105 0 c58 0 105 1 105 3 0 1 -47 49 -105 107
l-105 105 0 -108z"/>
<path d="M3808 3215 c5 -31 19 -32 25 -2 4 20 4 20 6 1 1 -17 8 -21 36 -21 30
0 35 4 35 24 0 27 -15 30 -28 7 -8 -15 -10 -15 -15 0 -4 10 -18 16 -35 16 -26
0 -29 -3 -24 -25z"/>
<path d="M1222 2298 l3 -563 130 0 130 0 3 193 2 192 173 0 c188 1 232 7 315
48 110 54 186 154 201 267 27 198 -96 359 -311 410 -48 11 -133 15 -356 15
l-292 0 2 -562z m610 330 c120 -71 112 -225 -15 -287 -38 -18 -61 -21 -185
-21 l-142 0 0 171 0 171 148 -4 c139 -3 149 -4 194 -30z"/>
<path d="M2310 2295 l0 -565 120 0 120 0 0 393 c1 329 3 388 14 367 7 -14 80
-191 162 -393 l148 -368 110 3 110 3 157 388 c86 214 160 391 163 394 3 4 6
-172 6 -390 l0 -397 120 0 120 0 0 565 0 565 -173 0 -174 0 -164 -415 -164
-416 -16 37 c-9 20 -84 207 -165 415 l-149 379 -172 0 -173 0 0 -565z"/>
<path d="M3840 2296 l0 -566 130 0 130 0 0 195 0 195 179 0 c147 0 190 3 240
19 121 38 200 104 249 210 36 76 38 201 4 276 -41 89 -123 161 -237 206 -58
23 -71 23 -377 27 l-318 3 0 -565z m600 334 c131 -74 119 -236 -22 -295 -28
-11 -74 -15 -178 -15 l-140 0 0 171 0 171 148 -4 c135 -3 151 -5 192 -28z"/>
<path d="M4868 2820 c-25 -26 -29 -36 -24 -63 9 -45 39 -71 81 -71 42 0 72 26
81 71 5 27 1 37 -24 63 -19 18 -41 30 -57 30 -16 0 -38 -12 -57 -30z m95 -2
c27 -22 31 -61 7 -91 -27 -35 -62 -35 -89 -1 -26 33 -27 58 -1 84 23 23 58 26
83 8z"/>
<path d="M4901 2763 c1 -27 3 -40 6 -30 6 21 19 22 27 2 3 -8 10 -15 16 -15 7
0 7 7 -1 21 -7 14 -8 24 -1 31 16 16 2 38 -24 38 -22 0 -24 -4 -23 -47z m29
27 c0 -5 -4 -10 -10 -10 -5 0 -10 5 -10 10 0 6 5 10 10 10 6 0 10 -4 10 -10z"/>
</g>
</svg>
