<svg xmlns="http://www.w3.org/2000/svg" width="600" height="600" viewBox="0 0 600 600" version="1.1"><path d="M 265 1.496 C 195.904 9.911, 134.891 39.823, 86.284 89.112 C 38.099 137.974, 9.498 197.621, 1.467 265.994 C -0.448 282.304, -0.448 317.696, 1.467 334.006 C 9.498 402.379, 38.099 462.026, 86.284 510.888 C 130.052 555.270, 183.898 583.964, 245 595.465 C 277.727 601.625, 322.273 601.625, 355 595.465 C 461.901 575.343, 549.816 499.183, 584.672 396.500 C 591.195 377.285, 597.216 349.845, 598.630 332.885 C 598.995 328.514, 599.677 324.700, 600.146 324.410 C 600.616 324.119, 601 312.632, 601 298.882 C 601 285.132, 600.614 274.121, 600.141 274.413 C 599.669 274.704, 598.987 271.394, 598.625 267.055 C 597.759 256.672, 594.596 239.268, 590.981 225 C 564.370 119.966, 479.868 35.470, 375 9.034 C 347.568 2.119, 329.105 -0.036, 298.506 0.108 C 285.853 0.168, 270.775 0.792, 265 1.496 M 277 40.620 C 262.654 42.344, 249.752 44.537, 239.500 46.994 C 202.371 55.892, 166.228 73.687, 136.500 97.704 C 124.447 107.441, 103.872 128.324, 94.825 140 C 67.287 175.543, 49.500 217.206, 42.314 263 C 39.754 279.316, 39.754 320.684, 42.314 337 C 49.490 382.732, 67.324 424.506, 94.825 460 C 103.872 471.676, 124.447 492.559, 136.500 502.296 C 172.464 531.352, 215.631 550.253, 263 557.686 C 279.316 560.246, 320.684 560.246, 337 557.686 C 384.369 550.253, 427.536 531.352, 463.500 502.296 C 475.553 492.559, 496.128 471.676, 505.175 460 C 527.804 430.794, 544.467 396.130, 553.006 360.500 C 558.408 337.957, 559.491 327.858, 559.491 300 C 559.491 280.336, 559.078 271.868, 557.686 263 C 550.510 217.268, 532.676 175.494, 505.175 140 C 496.128 128.324, 475.553 107.441, 463.500 97.704 C 427.843 68.896, 384.491 49.816, 338 42.467 C 327.930 40.876, 285.553 39.593, 277 40.620 M 209 155.500 L 209 195 217 195 L 225 195 225 183.099 L 225 171.199 246.250 170.849 C 267.189 170.505, 267.584 170.459, 273.224 167.689 C 293.751 157.609, 294.078 128.693, 273.780 118.578 L 268.607 116 238.804 116 L 209 116 209 155.500 M 296 155.478 L 296 195.227 300.711 194.521 C 308.887 193.295, 315.732 190.098, 321.533 184.796 C 328.139 178.758, 331.358 173.565, 333.433 165.599 C 334.278 162.353, 335.140 159.526, 335.349 159.318 C 335.558 159.109, 335.979 160.805, 336.285 163.087 C 337.132 169.406, 342.448 179.237, 347.570 183.958 C 353.149 189.100, 362.697 193.673, 369.750 194.582 L 375 195.258 375 155.629 L 375 116 372.710 116 C 368.180 116, 358.428 119.158, 353.813 122.120 C 344.671 127.986, 337.600 138.343, 336.310 147.756 L 335.660 152.500 333.479 145.360 C 330.705 136.275, 328.241 132.335, 321.452 126.130 C 315.748 120.917, 308.176 117.397, 300.360 116.326 L 296 115.728 296 155.478 M 225 143 L 225 155 245.423 155 L 265.847 155 268.905 152.426 C 273.196 148.816, 274.652 143.497, 272.658 138.724 C 269.727 131.709, 267.193 131.008, 244.750 131.004 L 225 131 225 143 M 210.214 211.711 L 210.500 221.422 213.764 222.088 C 225.007 224.380, 231.832 236.890, 228.065 248.302 C 226.391 253.375, 219.063 259.806, 214.043 260.609 L 210 261.256 210 271.128 L 210 281 249.500 281 L 289 281 289 271.132 L 289 261.263 284.882 260.711 C 274.181 259.276, 266.011 244.993, 269.955 234.617 C 271.910 229.477, 277.978 224.062, 283.624 222.421 L 289 220.858 289 211.429 L 289 202 249.464 202 L 209.928 202 210.214 211.711 M 340.631 235.361 L 374.500 268.721 374.785 257.653 L 375.069 246.586 352.793 224.293 L 330.517 202 318.640 202 L 306.762 202 340.631 235.361 M 363.500 213 C 369.531 219.050, 374.586 224, 374.733 224 C 374.880 224, 375 219.050, 375 213 L 375 202 363.767 202 L 352.534 202 363.500 213 M 296 225.014 L 296 236.517 318.293 258.793 L 340.586 281.069 351.802 280.785 L 363.018 280.500 329.509 247.006 L 296 213.511 296 225.014 M 296 270 L 296 281 307.233 281 L 318.466 281 307.500 270 C 301.469 263.950, 296.414 259, 296.267 259 C 296.120 259, 296 263.950, 296 270 M 0.435 300 C 0.435 314.025, 0.575 319.762, 0.747 312.750 C 0.919 305.738, 0.919 294.262, 0.747 287.250 C 0.575 280.238, 0.435 285.975, 0.435 300 M 380.755 278.500 C 381.350 281.610, 382.717 281.745, 383.294 278.750 C 383.696 276.663, 383.738 276.651, 383.864 278.583 C 383.974 280.272, 384.664 280.667, 387.500 280.667 C 390.500 280.667, 391 280.333, 391 278.333 C 391 275.643, 389.514 275.259, 388.199 277.609 C 387.371 279.089, 387.248 279.089, 386.680 277.609 C 386.310 276.643, 384.906 276, 383.170 276 C 380.624 276, 380.335 276.299, 380.755 278.500 M 122 370.500 L 122 427 135.500 427 L 149 427 149 407.575 L 149 388.150 168.750 387.792 C 186.295 387.474, 189.114 387.187, 194 385.224 C 205.099 380.765, 214.501 371.178, 217.113 361.657 C 217.741 359.371, 218.229 354.254, 218.199 350.286 C 218.072 333.622, 206.387 320.462, 187.307 315.492 C 182.851 314.331, 174.970 314, 151.790 314 L 122 314 122 370.500 M 231 370.500 L 231 427 242.988 427 L 254.977 427 255.238 387.867 L 255.500 348.734 260.136 360.117 C 262.686 366.378, 269.832 384.002, 276.018 399.282 L 287.263 427.063 298.382 426.782 L 309.500 426.500 324.675 389 C 333.021 368.375, 340.307 350.825, 340.866 350 C 341.563 348.971, 341.901 360.830, 341.941 387.750 L 342 427 354 427 L 366 427 366 370.500 L 366 314 348.612 314 L 331.224 314 314.940 355.028 C 305.984 377.594, 298.332 395.706, 297.936 395.278 C 297.539 394.850, 290.088 376.387, 281.379 354.250 L 265.543 314 248.271 314 L 231 314 231 370.500 M 384 370.500 L 384 427 396.978 427 L 409.957 427 410.228 407.750 L 410.500 388.500 430 387.916 C 440.725 387.595, 450.863 386.868, 452.528 386.300 C 463.041 382.714, 472.471 374.845, 476.702 366.126 C 479.051 361.287, 479.435 359.241, 479.451 351.500 C 479.466 343.826, 479.076 341.657, 476.803 336.780 C 471.927 326.314, 460.369 317.851, 447.201 315.105 C 444.039 314.446, 430.223 314, 412.951 314 L 384 314 384 370.500 M 488.229 315.669 C 486.538 316.350, 484 321.366, 484 324.027 C 484 327.051, 489.276 332, 492.500 332 C 495.732 332, 501 327.049, 501 324.011 C 501 321.412, 499.239 317.934, 497.087 316.282 C 495.491 315.057, 490.593 314.718, 488.229 315.669 M 488.637 318.506 C 486.171 320.972, 485.711 323.911, 487.390 326.473 C 490.268 330.864, 495.538 330.600, 498.032 325.939 C 500.026 322.214, 496.799 317, 492.500 317 C 491.204 317, 489.465 317.678, 488.637 318.506 M 490.116 323.750 C 490.180 326.363, 490.438 327.712, 490.689 326.750 C 491.266 324.543, 491.945 324.543, 493.558 326.748 C 494.261 327.710, 495.162 328.171, 495.561 327.773 C 495.959 327.374, 495.716 326.362, 495.020 325.524 C 494.029 324.330, 494.016 323.685, 494.964 322.544 C 496.579 320.598, 495.441 319, 492.441 319 C 490.179 319, 490.009 319.349, 490.116 323.750 M 149 351 L 149 368 162.134 368 C 177.601 368, 182.109 366.891, 187.154 361.846 C 193.531 355.469, 193.362 347.112, 186.716 340.223 C 182.171 335.511, 176.006 334, 161.318 334 L 149 334 149 351 M 410 350.906 L 410 368 424.250 367.978 C 440.312 367.953, 444.459 366.809, 449.292 361.065 C 452.558 357.184, 453.418 354.156, 452.725 348.986 C 452.007 343.634, 448.861 339.603, 443.243 336.836 C 439.084 334.788, 436.746 334.458, 424.250 334.156 L 410 333.812 410 350.906" stroke="none" fill="#463993" fill-rule="evenodd"/><path d="M 277 40.620 C 262.654 42.344, 249.752 44.537, 239.500 46.994 C 202.371 55.892, 166.228 73.687, 136.500 97.704 C 124.447 107.441, 103.872 128.324, 94.825 140 C 67.287 175.543, 49.500 217.206, 42.314 263 C 39.754 279.316, 39.754 320.684, 42.314 337 C 49.490 382.732, 67.324 424.506, 94.825 460 C 103.872 471.676, 124.447 492.559, 136.500 502.296 C 172.464 531.352, 215.631 550.253, 263 557.686 C 279.316 560.246, 320.684 560.246, 337 557.686 C 384.369 550.253, 427.536 531.352, 463.500 502.296 C 475.553 492.559, 496.128 471.676, 505.175 460 C 527.804 430.794, 544.467 396.130, 553.006 360.500 C 558.408 337.957, 559.491 327.858, 559.491 300 C 559.491 280.336, 559.078 271.868, 557.686 263 C 550.510 217.268, 532.676 175.494, 505.175 140 C 496.128 128.324, 475.553 107.441, 463.500 97.704 C 427.843 68.896, 384.491 49.816, 338 42.467 C 327.930 40.876, 285.553 39.593, 277 40.620 M 209 155.500 L 209 195 217 195 L 225 195 225 183.099 L 225 171.199 246.250 170.849 C 267.189 170.505, 267.584 170.459, 273.224 167.689 C 293.751 157.609, 294.078 128.693, 273.780 118.578 L 268.607 116 238.804 116 L 209 116 209 155.500 M 296 155.478 L 296 195.227 300.711 194.521 C 308.887 193.295, 315.732 190.098, 321.533 184.796 C 328.139 178.758, 331.358 173.565, 333.433 165.599 C 334.278 162.353, 335.140 159.526, 335.349 159.318 C 335.558 159.109, 335.979 160.805, 336.285 163.087 C 337.132 169.406, 342.448 179.237, 347.570 183.958 C 353.149 189.100, 362.697 193.673, 369.750 194.582 L 375 195.258 375 155.629 L 375 116 372.710 116 C 368.180 116, 358.428 119.158, 353.813 122.120 C 344.671 127.986, 337.600 138.343, 336.310 147.756 L 335.660 152.500 333.479 145.360 C 330.705 136.275, 328.241 132.335, 321.452 126.130 C 315.748 120.917, 308.176 117.397, 300.360 116.326 L 296 115.728 296 155.478 M 225 143 L 225 155 245.423 155 L 265.847 155 268.905 152.426 C 273.196 148.816, 274.652 143.497, 272.658 138.724 C 269.727 131.709, 267.193 131.008, 244.750 131.004 L 225 131 225 143 M 210.214 211.711 L 210.500 221.422 213.764 222.088 C 225.007 224.380, 231.832 236.890, 228.065 248.302 C 226.391 253.375, 219.063 259.806, 214.043 260.609 L 210 261.256 210 271.128 L 210 281 249.500 281 L 289 281 289 271.132 L 289 261.263 284.882 260.711 C 274.181 259.276, 266.011 244.993, 269.955 234.617 C 271.910 229.477, 277.978 224.062, 283.624 222.421 L 289 220.858 289 211.429 L 289 202 249.464 202 L 209.928 202 210.214 211.711 M 340.631 235.361 L 374.500 268.721 374.785 257.653 L 375.069 246.586 352.793 224.293 L 330.517 202 318.640 202 L 306.762 202 340.631 235.361 M 363.500 213 C 369.531 219.050, 374.586 224, 374.733 224 C 374.880 224, 375 219.050, 375 213 L 375 202 363.767 202 L 352.534 202 363.500 213 M 296 225.014 L 296 236.517 318.293 258.793 L 340.586 281.069 351.802 280.785 L 363.018 280.500 329.509 247.006 L 296 213.511 296 225.014 M 296 270 L 296 281 307.233 281 L 318.466 281 307.500 270 C 301.469 263.950, 296.414 259, 296.267 259 C 296.120 259, 296 263.950, 296 270 M 380.755 278.500 C 381.350 281.610, 382.717 281.745, 383.294 278.750 C 383.696 276.663, 383.738 276.651, 383.864 278.583 C 383.974 280.272, 384.664 280.667, 387.500 280.667 C 390.500 280.667, 391 280.333, 391 278.333 C 391 275.643, 389.514 275.259, 388.199 277.609 C 387.371 279.089, 387.248 279.089, 386.680 277.609 C 386.310 276.643, 384.906 276, 383.170 276 C 380.624 276, 380.335 276.299, 380.755 278.500 M 122 370.500 L 122 427 135.500 427 L 149 427 149 407.575 L 149 388.150 168.750 387.792 C 186.295 387.474, 189.114 387.187, 194 385.224 C 205.099 380.765, 214.501 371.178, 217.113 361.657 C 217.741 359.371, 218.229 354.254, 218.199 350.286 C 218.072 333.622, 206.387 320.462, 187.307 315.492 C 182.851 314.331, 174.970 314, 151.790 314 L 122 314 122 370.500 M 231 370.500 L 231 427 242.988 427 L 254.977 427 255.238 387.867 L 255.500 348.734 260.136 360.117 C 262.686 366.378, 269.832 384.002, 276.018 399.282 L 287.263 427.063 298.382 426.782 L 309.500 426.500 324.675 389 C 333.021 368.375, 340.307 350.825, 340.866 350 C 341.563 348.971, 341.901 360.830, 341.941 387.750 L 342 427 354 427 L 366 427 366 370.500 L 366 314 348.612 314 L 331.224 314 314.940 355.028 C 305.984 377.594, 298.332 395.706, 297.936 395.278 C 297.539 394.850, 290.088 376.387, 281.379 354.250 L 265.543 314 248.271 314 L 231 314 231 370.500 M 384 370.500 L 384 427 396.978 427 L 409.957 427 410.228 407.750 L 410.500 388.500 430 387.916 C 440.725 387.595, 450.863 386.868, 452.528 386.300 C 463.041 382.714, 472.471 374.845, 476.702 366.126 C 479.051 361.287, 479.435 359.241, 479.451 351.500 C 479.466 343.826, 479.076 341.657, 476.803 336.780 C 471.927 326.314, 460.369 317.851, 447.201 315.105 C 444.039 314.446, 430.223 314, 412.951 314 L 384 314 384 370.500 M 488.229 315.669 C 486.538 316.350, 484 321.366, 484 324.027 C 484 327.051, 489.276 332, 492.500 332 C 495.732 332, 501 327.049, 501 324.011 C 501 321.412, 499.239 317.934, 497.087 316.282 C 495.491 315.057, 490.593 314.718, 488.229 315.669 M 488.637 318.506 C 486.171 320.972, 485.711 323.911, 487.390 326.473 C 490.268 330.864, 495.538 330.600, 498.032 325.939 C 500.026 322.214, 496.799 317, 492.500 317 C 491.204 317, 489.465 317.678, 488.637 318.506 M 490.116 323.750 C 490.180 326.363, 490.438 327.712, 490.689 326.750 C 491.266 324.543, 491.945 324.543, 493.558 326.748 C 494.261 327.710, 495.162 328.171, 495.561 327.773 C 495.959 327.374, 495.716 326.362, 495.020 325.524 C 494.029 324.330, 494.016 323.685, 494.964 322.544 C 496.579 320.598, 495.441 319, 492.441 319 C 490.179 319, 490.009 319.349, 490.116 323.750 M 149 351 L 149 368 162.134 368 C 177.601 368, 182.109 366.891, 187.154 361.846 C 193.531 355.469, 193.362 347.112, 186.716 340.223 C 182.171 335.511, 176.006 334, 161.318 334 L 149 334 149 351 M 410 350.906 L 410 368 424.250 367.978 C 440.312 367.953, 444.459 366.809, 449.292 361.065 C 452.558 357.184, 453.418 354.156, 452.725 348.986 C 452.007 343.634, 448.861 339.603, 443.243 336.836 C 439.084 334.788, 436.746 334.458, 424.250 334.156 L 410 333.812 410 350.906" stroke="none" fill="#fafafb" fill-rule="evenodd"/></svg>