<?xml version="1.0" standalone="no"?>
<!DOCTYPE svg PUBLIC "-//W3C//DTD SVG 20010904//EN"
 "http://www.w3.org/TR/2001/REC-SVG-20010904/DTD/svg10.dtd">
<svg version="1.0" xmlns="http://www.w3.org/2000/svg"
 width="528.000000pt" height="396.000000pt" viewBox="0 0 528.000000 396.000000"
 preserveAspectRatio="xMidYMid meet">

<g transform="translate(0.000000,396.000000) scale(0.100000,-0.100000)"
fill="#000000" stroke="none">
<path d="M0 1980 l0 -1980 2640 0 2640 0 0 1980 0 1980 -2640 0 -2640 0 0
-1980z m1325 330 c79 -13 131 -50 167 -119 51 -97 32 -199 -50 -273 -22 -20
-58 -41 -79 -47 -53 -15 -356 -14 -407 1 -82 25 -156 126 -156 214 0 108 82
206 187 224 69 11 268 12 338 0z m660 -1 c72 -20 115 -77 115 -151 0 -80 -55
-138 -139 -148 l-46 -5 84 -70 83 -70 -62 -3 -61 -3 -82 70 c-45 39 -104 91
-132 115 l-50 45 138 1 c123 0 139 2 157 20 11 11 20 33 20 50 0 17 -9 39 -20
50 -18 18 -33 20 -175 20 l-155 0 -2 -182 -3 -183 -47 -3 -48 -3 0 225 c0 205
1 225 18 229 37 10 369 6 407 -4z m487 -1 c14 -12 288 -434 288 -444 0 -2 -22
-4 -50 -4 -47 0 -51 2 -75 40 l-25 40 -119 0 -119 0 -21 36 c-12 19 -21 37
-21 40 0 2 50 4 110 4 61 0 110 2 110 4 0 16 -115 185 -121 179 -5 -5 -55 -83
-112 -173 l-104 -165 -52 -3 c-28 -2 -51 0 -51 4 0 13 263 419 283 437 23 20
57 22 79 5z m778 1 c0 -7 -9 -27 -21 -45 l-21 -34 -145 0 c-112 0 -153 -4
-179 -16 -101 -48 -98 -204 6 -256 29 -15 63 -18 203 -18 92 0 167 -2 167 -5
0 -3 -10 -21 -22 -40 l-23 -35 -150 0 c-82 0 -167 5 -188 11 -48 13 -112 70
-139 122 -29 59 -23 159 15 216 35 53 92 90 154 101 78 13 343 12 343 -1z
m140 -179 l5 -185 201 -5 201 -5 -24 -37 -23 -38 -210 0 c-205 0 -209 0 -224
22 -13 19 -16 58 -16 224 0 110 3 204 7 208 4 4 23 6 43 4 l35 -3 5 -185z
m930 184 c0 -2 -12 -22 -26 -44 l-27 -40 -144 0 c-151 0 -168 -4 -215 -48 -54
-50 -46 -52 177 -52 113 0 205 -3 205 -6 0 -4 -9 -22 -21 -40 l-21 -34 -184 0
c-207 0 -215 -3 -150 -65 44 -41 65 -45 257 -45 l159 0 -26 -40 -27 -40 -151
0 c-83 0 -168 5 -189 11 -49 13 -115 73 -138 124 -58 126 25 287 161 314 45 9
360 13 360 5z m122 -11 c25 -23 23 -59 -6 -78 -39 -26 -76 -3 -76 47 0 44 48
62 82 31z m-2453 -712 c8 -5 11 -16 8 -24 -4 -12 -16 -14 -46 -10 -36 5 -41 3
-41 -15 0 -15 10 -24 35 -32 44 -15 68 -49 59 -84 -8 -32 -35 -48 -81 -48 -40
0 -74 25 -57 42 8 8 19 7 37 -1 32 -15 57 -6 57 21 0 13 -10 24 -27 30 -46 16
-58 26 -67 53 -8 22 -6 31 14 52 24 26 80 34 109 16z m529 -14 c4 -20 -25 -34
-40 -19 -15 15 -1 44 19 40 10 -2 19 -11 21 -21z m560 7 c23 -16 30 -62 12
-80 -8 -8 -6 -15 5 -24 19 -16 19 -50 1 -75 -10 -14 -30 -20 -80 -23 l-66 -4
0 111 0 111 53 0 c31 0 61 -6 75 -16z m-932 -62 c15 -10 34 -47 34 -66 0 -13
-12 -16 -56 -16 -49 0 -55 -2 -44 -15 14 -17 46 -20 55 -5 5 8 11 7 21 -1 29
-24 -28 -55 -73 -38 -54 20 -69 76 -32 123 20 26 69 36 95 18z m214 -39 c8
-24 17 -43 21 -43 3 0 11 18 18 41 11 38 29 55 49 47 5 -1 -2 -34 -17 -73 -23
-60 -30 -70 -51 -70 -20 0 -28 10 -49 64 -14 35 -27 58 -29 52 -2 -6 -12 -11
-22 -11 -22 0 -30 -19 -30 -71 0 -32 -3 -39 -20 -39 -18 0 -20 7 -20 74 l0 74
68 -2 67 -1 15 -42z m155 -28 c0 -63 -2 -70 -20 -70 -17 0 -20 8 -23 59 -4 70
2 89 25 84 15 -3 18 -15 18 -73z m154 66 c21 -14 2 -33 -26 -26 -30 7 -53 -10
-53 -40 0 -29 23 -48 48 -41 23 8 50 -18 32 -29 -19 -12 -80 -8 -96 6 -38 31
-36 97 3 127 19 14 71 16 92 3z m151 -11 c11 -11 20 -31 20 -45 0 -24 -3 -25
-56 -25 -50 0 -55 -2 -44 -16 10 -11 23 -14 52 -9 30 5 38 4 38 -8 0 -21 -55
-38 -85 -27 -36 14 -58 53 -50 90 12 57 85 80 125 40z m360 -24 c0 -57 8 -76
30 -76 22 0 30 19 30 76 0 37 3 44 20 44 18 0 20 -7 20 -75 l0 -74 -37 -1
c-21 0 -46 0 -56 -1 -30 0 -46 32 -47 94 0 50 2 57 20 57 17 0 20 -7 20 -44z
m229 35 c23 -15 2 -33 -30 -26 -41 9 -37 -11 7 -30 30 -12 35 -19 32 -42 -4
-39 -47 -59 -84 -41 -37 18 -30 34 11 30 45 -4 45 14 0 32 -37 16 -48 49 -23
74 14 14 67 16 87 3z"/>
<path d="M962 2210 c-98 -61 -95 -196 8 -247 40 -21 58 -23 190 -23 121 0 152
4 187 20 98 44 112 162 28 240 -26 24 -30 25 -203 28 -163 2 -180 1 -210 -18z"/>
<path d="M4425 2272 c1 -18 -2 -32 -7 -32 -4 0 -8 6 -8 13 0 8 -3 8 -9 -2 -7
-11 -10 -7 -13 15 -3 24 -6 26 -12 11 -5 -10 -3 -23 4 -32 30 -36 84 3 56 40
-12 16 -13 15 -11 -13z"/>
<path d="M2990 1535 c0 -24 3 -26 33 -23 24 2 32 8 32 23 0 15 -8 21 -32 23
-30 3 -33 1 -33 -23z"/>
<path d="M2990 1445 c0 -24 3 -26 38 -23 29 2 37 7 37 23 0 16 -8 21 -37 23
-35 3 -38 1 -38 -23z"/>
<path d="M2080 1485 c-11 -13 -8 -15 25 -15 25 0 35 4 33 13 -7 18 -43 20 -58
2z"/>
<path d="M2740 1485 c-11 -13 -8 -15 25 -15 25 0 35 4 33 13 -7 18 -43 20 -58
2z"/>
</g>
</svg>
